<svg width="16" height="16" viewBox="0 0 16 16" fill="none" xmlns="http://www.w3.org/2000/svg">
<path fill-rule="evenodd" clip-rule="evenodd" d="M2.09865 10.2808C0.740275 7.928 1.94884 5.46752 3.56217 4.53607C3.85346 4.36789 4.00778 4.42818 4.07246 4.54021C4.11127 4.60743 4.1182 4.72294 4.00963 4.84537C2.64211 6.20257 2.51578 7.38093 2.90388 8.05315C3.09793 8.38926 3.42296 8.59 3.77294 8.62695C3.77294 8.62695 4.92302 8.17998 5.58876 9.00307C6.2545 9.82616 6.1519 10.988 5.2332 11.5184C4.35931 12.023 3.00423 11.8493 2.09865 10.2808ZM13.8423 10.2808C15.2007 7.928 13.9921 5.46752 12.3788 4.53607C12.0875 4.36789 11.9332 4.42818 11.8685 4.54021C11.8297 4.60743 11.8228 4.72294 11.9313 4.84537C13.2988 6.20257 13.4252 7.38093 13.0371 8.05315C12.843 8.38926 12.518 8.59 12.168 8.62695C12.168 8.62695 11.0179 8.17998 10.3522 9.00307C9.68645 9.82616 9.78906 10.988 10.7078 11.5184C11.5816 12.023 12.9367 11.8493 13.8423 10.2808Z" fill="white"/>
</svg>
